<svg width="54" height="32" viewBox="0 0 54 32" fill="none" xmlns="http://www.w3.org/2000/svg">
<path d="M15.3198 11.6183C15.3198 12.2805 15.3984 12.8124 15.5205 13.2037C15.6593 13.5951 15.8433 14.0232 16.0875 14.4848C16.1828 14.6336 16.2179 14.7724 16.2179 14.8945C16.2179 15.0768 16.1042 15.2524 15.8784 15.4347L14.7545 16.1756C14.6157 16.281 14.4585 16.3328 14.293 16.3412C14.1107 16.3412 13.9351 16.2542 13.7611 16.0886C13.517 15.8361 13.3079 15.5568 13.1173 15.2524C12.9166 14.9129 12.7343 14.5651 12.5687 14.2072C11.1756 15.8445 9.43292 16.6639 7.33404 16.6639C5.83556 16.6639 4.64312 16.2375 3.77179 15.3829C2.90047 14.5199 2.45728 13.3877 2.45728 11.9594C2.45728 10.4526 2.9891 9.21501 4.07785 8.29184C5.16659 7.36866 6.60319 6.90708 8.44118 6.90708C9.04158 6.90708 9.66873 6.95892 10.3226 7.04589C10.9849 7.13285 11.6639 7.2817 12.3697 7.43723V6.13944C12.3697 4.7898 12.0904 3.83987 11.5335 3.29131C10.9665 2.74276 10.0099 2.47183 8.63351 2.47183C8.01471 2.47183 7.37083 2.54207 6.70856 2.69761C6.05464 2.86317 5.41076 3.0555 4.79197 3.30804C4.58292 3.40337 4.37386 3.47361 4.16481 3.54385C4.07785 3.57061 3.98252 3.58733 3.88552 3.59569C3.63298 3.59569 3.5109 3.4134 3.5109 3.03878V2.16745C3.5109 1.88816 3.54602 1.67074 3.63298 1.54866C3.76343 1.38309 3.93736 1.25264 4.12969 1.17404C4.75685 0.85126 5.49773 0.582001 6.36906 0.372949C7.28387 0.137138 8.2154 0.0250862 9.14694 0.0334483C11.2726 0.0334483 12.8145 0.511759 13.8163 1.48009C14.7913 2.43838 15.288 3.89338 15.288 5.85345V11.6199L15.3198 11.6183ZM8.09833 14.3276C8.68201 14.3276 9.29244 14.2222 9.92796 14.0048C10.5718 13.7958 11.1388 13.4044 11.6171 12.8726C11.9048 12.5331 12.1222 12.1585 12.2275 11.732C12.3329 11.3055 12.4015 10.7821 12.4015 10.1817V9.43242C11.8613 9.30198 11.3211 9.19661 10.7642 9.12804C10.2156 9.0578 9.6587 9.02268 9.09175 9.02268C7.89764 9.02268 7.02799 9.25849 6.44431 9.7368C5.85228 10.2151 5.57299 10.8958 5.57299 11.7838C5.57299 12.62 5.78204 13.2388 6.2269 13.6653C6.65337 14.1102 7.27885 14.3276 8.09833 14.3276ZM22.3925 16.2525C22.0697 16.2525 21.8523 16.2007 21.7135 16.0702C21.5747 15.9649 21.4442 15.7123 21.3389 15.3829L17.1578 1.62057C17.0792 1.38476 17.019 1.15062 17.0006 0.906449C17.0006 0.618793 17.1394 0.461587 17.4187 0.461587H19.1697C19.5092 0.461587 19.7367 0.513432 19.8571 0.635518C20.0059 0.74088 20.1096 0.993415 20.215 1.33292L23.212 13.1184L25.9898 1.33292C26.0768 0.975018 26.1822 0.74088 26.321 0.635518C26.5384 0.50507 26.7826 0.44319 27.0351 0.461587H28.455C28.7945 0.461587 29.0303 0.513432 29.1691 0.635518C29.3079 0.74088 29.4384 0.993415 29.5086 1.33292L32.3216 13.2572L35.3972 1.33292C35.5109 0.975018 35.633 0.74088 35.7551 0.635518C35.9641 0.50507 36.2083 0.44319 36.4525 0.461587H38.1082C38.3958 0.461587 38.553 0.600397 38.553 0.906449C38.553 0.993415 38.5363 1.08038 38.5179 1.1941C38.4911 1.34295 38.4477 1.49012 38.3958 1.63897L34.1011 15.3929C33.9957 15.7508 33.8753 15.985 33.7264 16.0903C33.5257 16.2208 33.2916 16.2826 33.0558 16.2642H31.5222C31.1827 16.2642 30.9552 16.2124 30.8081 16.0903C30.6693 15.9682 30.5472 15.7324 30.4769 15.3762L27.7158 3.89506L24.9713 15.3578C24.8844 15.7157 24.779 15.9498 24.6318 16.0719C24.493 16.194 24.2405 16.2458 23.9177 16.2458L22.3925 16.2525ZM45.2577 16.7325C44.3346 16.7325 43.4114 16.6188 42.5233 16.4097C41.6353 16.2007 40.9379 15.9649 40.4763 15.6956C40.1886 15.5384 39.998 15.3645 39.9277 15.1989C39.8575 15.0417 39.814 14.8761 39.814 14.7022V13.7958C39.814 13.4211 39.9629 13.2388 40.2238 13.2388C40.3291 13.2388 40.4412 13.2556 40.5465 13.2907C40.6519 13.3342 40.8158 13.4044 40.9914 13.473C41.6018 13.7422 42.2541 13.9513 42.9515 14.0918C43.6656 14.2406 44.3546 14.3092 45.0688 14.3092C46.1926 14.3092 47.0639 14.1085 47.6643 13.7172C48.2564 13.3593 48.6143 12.7154 48.5959 12.028C48.6042 11.5664 48.4303 11.1216 48.1176 10.7821C47.7948 10.4509 47.186 10.1465 46.3147 9.85889L43.7358 9.0578C42.438 8.64806 41.4714 8.04766 40.8877 7.24658C40.3124 6.5057 39.9997 5.60092 39.9913 4.65935C39.9913 3.91011 40.1569 3.25619 40.4796 2.68255C40.8024 2.11561 41.2289 1.62057 41.7607 1.22755C42.2925 0.817811 42.9013 0.513431 43.6071 0.304379C44.3212 0.0869651 45.0704 0 45.8548 0C46.2461 0 46.6559 0.0167238 47.0489 0.0702412C47.4586 0.122086 47.8333 0.192327 48.2079 0.270931C48.5557 0.357896 48.8952 0.444863 49.218 0.550225C49.5408 0.655587 49.7933 0.767639 49.9673 0.873001C50.1763 0.978363 50.3586 1.1339 50.4991 1.31786C50.6212 1.4918 50.673 1.70085 50.6647 1.9099V2.74611C50.6647 3.12073 50.5158 3.31305 50.2549 3.31305C50.0107 3.2863 49.785 3.21773 49.5759 3.104C48.5039 2.62569 47.3366 2.38988 46.1608 2.40661C45.1423 2.40661 44.3396 2.56381 43.791 2.90331C43.2341 3.24281 42.9548 3.75624 42.9548 4.48876C42.9548 4.98547 43.1288 5.41194 43.4867 5.75144C43.8445 6.09094 44.5052 6.43044 45.4467 6.73649L47.9721 7.52922C49.2531 7.93896 50.1847 8.51427 50.7332 9.24511C51.2818 9.9676 51.5527 10.8038 51.5527 11.737C51.5527 12.4946 51.3871 13.192 51.0911 13.8008C50.7683 14.4012 50.3419 14.933 49.7933 15.3695C49.2364 15.8144 48.5825 16.1271 47.8165 16.3629C47.0154 16.6071 46.1792 16.7375 45.2644 16.7375L45.2577 16.7325ZM48.6277 25.3806C42.7658 29.7105 34.2633 32 26.9465 32C16.6946 32 7.45278 28.2103 0.475463 21.9053C-0.0730891 21.4086 0.423618 20.7296 1.0859 21.1293C8.62849 25.5027 17.9405 28.1585 27.5653 28.1585C34.0626 28.1585 41.1971 26.7988 47.7731 24.0293C48.7481 23.576 49.5843 24.6648 48.626 25.3789L48.6277 25.3806ZM51.0677 22.6027C50.3185 21.6444 46.1107 22.1411 44.2125 22.3769C43.6455 22.4472 43.5502 21.9421 44.0737 21.5675C47.4185 19.2244 52.9141 19.8951 53.5596 20.6794C54.1951 21.4889 53.3773 26.9861 50.2499 29.6168C49.7716 30.0266 49.3 29.8175 49.5174 29.2773C50.2315 27.5179 51.817 23.5526 51.0677 22.6027Z" fill="currentColor"/>
</svg>
