<svg width="23" height="32" viewBox="0 0 23 32" fill="none" xmlns="http://www.w3.org/2000/svg">
<path d="M8.16969 2.89198V4.2708H4.64391V0H8.16969V1.51109H6.15499V2.89198H8.16969ZM11.7941 1.51109H13.2026V0H9.67646V1.51109C10.1482 1.98282 10.3942 2.20864 11.0764 2.89091C10.6776 2.89091 9.67646 2.89223 9.67646 2.89223V4.2708H13.2026V2.89198L11.7941 1.51109ZM16.7917 1.51109H18.2001V0H14.6741V1.51109C15.1457 1.98282 15.3918 2.20864 16.074 2.89091C15.6754 2.89091 14.6741 2.89223 14.6741 2.89223V4.2708H18.2002V2.89198L16.7917 1.51109ZM22.8441 6.30053L20.7022 29.5014L11.422 32L2.14157 29.5014L0 6.30053H22.8441ZM18.5283 11.018H11.4136H4.17317L4.51942 13.8197H11.4136H11.8009L11.4136 13.9809L4.77141 16.7474L4.99172 19.4859L11.4136 19.5067L14.8555 19.5177L14.635 23.1693L11.4136 24.0763V24.0734L11.3872 24.0807L8.27584 23.2953L8.08703 21.0286H8.07676H5.19079H5.18065L5.55839 25.4045L11.4136 27.1359V27.1328L11.4241 27.1359L17.248 25.436L18.0037 16.7474H11.4136H11.3973L11.4136 16.7404L18.2449 13.8198L18.5283 11.018Z" fill="currentColor"/>
</svg>
