<svg width="24" height="33" viewBox="0 0 24 33" fill="none" xmlns="http://www.w3.org/2000/svg">
<path d="M0.818359 7.02041H23.5501L21.4037 30.1098L12.168 32.744L2.93218 30.1098L0.818359 7.02041ZM2.93218 5.06919V0.743988H4.3956V2.17488H5.69641V0.743988H7.1273V5.06919H5.69641V3.6383H4.3956V5.06919H2.93218ZM5.046 11.7359L5.82649 20.3863L5.85901 20.3212H15.6151L15.2899 23.996L12.168 24.8741L9.01348 23.9635L8.81836 21.7521H5.95657L6.34681 26.1759L12.168 27.8344L17.9901 26.1759L18.8031 17.493H8.42812L8.16795 14.5987H19.0623L19.3234 11.7369H5.046V11.7359ZM7.77771 2.2074V0.743988H11.7452V2.2074H10.4769V5.06919H9.04702V2.2074H7.77771ZM12.3631 5.06919V0.743988H13.8915L14.7696 2.23992L15.6802 0.743988H17.2086V5.06919H15.8092V2.85781L14.7696 4.48383V4.45131L13.793 2.92285V5.06919H12.3631ZM17.9566 5.06919V0.743988H19.3875V3.60578H21.4027V5.06919H17.9566Z" fill="currentColor"/>
</svg>
