<svg width="30" height="32" viewBox="0 0 30 32" fill="none" xmlns="http://www.w3.org/2000/svg">
<path d="M28.2153 15.76C28.2137 14.8422 27.9083 13.9507 27.3468 13.2247C26.7853 12.4987 25.9992 11.979 25.1113 11.7467L29.0953 0H9.35266L13.3473 11.784C12.485 12.0354 11.7273 12.5595 11.1879 13.2777C10.6484 13.996 10.3563 14.8697 10.3553 15.768C10.3553 17.1587 11.0487 18.3907 12.106 19.1493C11.6806 19.749 11.1965 20.3046 10.6607 20.808C9.67505 21.7467 8.52166 22.4917 7.26066 23.004C6.14866 22.2533 5.66733 20.9293 6.10199 19.7427C7.04794 19.4488 7.85747 18.8261 8.38407 17.9871C8.91068 17.1482 9.11957 16.1484 8.97295 15.1688C8.82633 14.1892 8.33388 13.2944 7.58472 12.6464C6.83556 11.9984 5.87918 11.64 4.88866 11.636C3.78827 11.6374 2.73335 12.0752 1.95525 12.8533C1.17716 13.6314 0.739406 14.6863 0.737994 15.7867C0.737994 16.9173 1.20066 17.9547 1.94199 18.696C1.87799 18.8253 1.81266 18.956 1.74733 19.0947C1.12733 20.3733 0.423328 21.8187 0.153995 23.44C-0.383339 26.6827 0.496661 29.2853 2.61933 30.7587C3.76817 31.5689 5.14017 32.0026 6.54599 32C8.98199 32 11.4553 30.7773 13.846 29.5907C15.5513 28.748 17.3113 27.868 19.0433 27.4413C19.6833 27.284 20.35 27.192 21.054 27.0893C22.4807 26.8853 23.954 26.6733 25.278 25.9027C26.0341 25.4694 26.6863 24.876 27.1889 24.164C27.6914 23.4521 28.0322 22.6389 28.1873 21.7813C28.4193 20.456 28.1873 19.1227 27.5953 17.9547C27.9927 17.3147 28.2153 16.5667 28.2153 15.76ZM26.4087 15.76C26.4087 17.0467 25.362 18.0933 24.0753 18.0933C23.5908 18.092 23.1187 17.9401 22.7242 17.6586C22.3298 17.3772 22.0326 16.9802 21.8737 16.5224C21.7149 16.0647 21.7022 15.5689 21.8374 15.1036C21.9727 14.6383 22.2492 14.2266 22.6287 13.9253L22.638 13.916C22.7127 13.86 22.7953 13.804 22.878 13.7493C22.878 13.7493 22.8887 13.7493 22.8887 13.74C22.926 13.7213 22.962 13.6933 22.9993 13.6733C23.0087 13.6733 23.018 13.6653 23.0273 13.6653C23.0647 13.6467 23.1113 13.628 23.1567 13.6093C23.2033 13.5907 23.25 13.5733 23.2873 13.5547C23.2967 13.5547 23.3047 13.5453 23.314 13.5453C23.3513 13.536 23.3887 13.5173 23.426 13.508C23.4353 13.508 23.4527 13.4987 23.4633 13.4987C23.5087 13.4893 23.546 13.48 23.5927 13.472H23.602L23.7407 13.4427C23.75 13.4427 23.7673 13.4427 23.778 13.4333C23.8153 13.4333 23.8513 13.424 23.8887 13.424H23.9353C23.982 13.424 24.0287 13.4147 24.0833 13.4147H24.2033C24.2407 13.4147 24.27 13.4147 24.306 13.424H24.3247C24.398 13.4333 24.4727 13.4427 24.5473 13.4613C25.0733 13.574 25.5449 13.8634 25.8835 14.2814C26.2222 14.6994 26.4075 15.2221 26.4087 15.76ZM11.938 1.85333H26.5113L23.166 11.72C23.0273 11.7467 22.8887 11.7933 22.75 11.84L19.23 4.66L15.6993 11.7933C15.5607 11.748 15.4113 11.72 15.2633 11.692L11.938 1.85333ZM18.562 14.9533C18.3916 14.0981 17.9536 13.3192 17.3113 12.7293L19.2287 8.85733L21.1647 12.8133C20.5913 13.3867 20.174 14.12 20.0073 14.9533H18.562ZM13.9207 13.4893C13.966 13.48 14.0033 13.4707 14.05 13.4627H14.0767C14.1153 13.452 14.1513 13.452 14.1887 13.4427H14.226C14.2633 13.4427 14.2913 13.4333 14.3273 13.4333H14.6887C14.726 13.4333 14.754 13.4427 14.782 13.4427C14.8007 13.4427 14.8087 13.4427 14.8287 13.452C14.8647 13.4613 14.8927 13.4613 14.93 13.4707C14.9393 13.4707 14.9487 13.4707 14.9673 13.48L15.0967 13.5067H15.106C15.1433 13.5173 15.1807 13.5267 15.2167 13.5453C15.226 13.5453 15.2353 13.5547 15.254 13.5547C15.282 13.564 15.3193 13.5733 15.3473 13.5907C15.3567 13.5907 15.366 13.6 15.374 13.6C15.4113 13.6187 15.4487 13.628 15.486 13.6467H15.4953C15.5381 13.6628 15.5785 13.6848 15.6153 13.712H15.6247C15.662 13.7307 15.6993 13.7573 15.7367 13.776C15.746 13.776 15.746 13.7853 15.754 13.7853C15.7913 13.804 15.8207 13.832 15.8567 13.8507L15.866 13.86C15.9767 13.9427 16.0793 14.036 16.1807 14.128L16.19 14.1373C16.6029 14.5722 16.8321 15.1496 16.83 15.7493C16.8095 16.3549 16.5546 16.9288 16.119 17.3499C15.6834 17.771 15.1012 18.0064 14.4953 18.0064C13.8894 18.0064 13.3073 17.771 12.8717 17.3499C12.4361 16.9288 12.1811 16.3549 12.1607 15.7493C12.1592 15.2301 12.3318 14.7254 12.6508 14.3157C12.9698 13.9061 13.4169 13.6151 13.9207 13.4893ZM4.80333 13.424C6.09133 13.424 7.13799 14.472 7.13799 15.7587C7.13799 17.0453 6.09133 18.0933 4.80466 18.0933C3.51799 18.0933 2.46866 17.0467 2.46866 15.76C2.46866 14.4733 3.51666 13.424 4.80333 13.424ZM26.354 21.4573C26.2486 22.0501 26.0138 22.6123 25.6662 23.1038C25.3187 23.5954 24.867 24.0043 24.3433 24.3013C23.3327 24.8853 22.0913 25.0707 20.7847 25.256C20.05 25.3501 19.3202 25.4796 18.598 25.644C16.6713 26.1173 14.8193 27.044 13.022 27.9333C10.7233 29.072 8.55532 30.1467 6.54599 30.1467C5.51562 30.1531 4.50988 29.8318 3.67399 29.2293C1.63533 27.8213 1.73666 25.1813 1.97799 23.736C2.20066 22.3827 2.82066 21.1147 3.41399 19.9C3.45133 19.8267 3.47933 19.7613 3.51666 19.6867C3.71933 19.7613 3.93266 19.8173 4.15533 19.8547C3.80333 21.8187 4.80333 23.8467 6.74999 24.848L7.10199 25.0333L7.48066 24.8947C9.10199 24.32 10.6033 23.384 11.9287 22.1333C12.6605 21.4509 13.3074 20.6827 13.8553 19.8453C14.0687 19.8813 14.282 19.8907 14.4953 19.8907C15.4125 19.8885 16.3032 19.5831 17.0287 19.0219C17.7541 18.4606 18.2735 17.6752 18.506 16.788H20.062C20.2929 17.6766 20.8123 18.4634 21.5387 19.0249C22.265 19.5864 23.1572 19.8909 24.0753 19.8907C24.8433 19.8907 25.5553 19.6773 26.1687 19.3173C26.4087 20.0107 26.4833 20.7347 26.354 21.4573Z" fill="currentColor"/>
</svg>
