<svg width="54" height="32" viewBox="0 0 54 32" fill="none" xmlns="http://www.w3.org/2000/svg">
<path d="M12.5158 8.34605H22.5201V9.14121H13.4329V15.1258H21.9782V15.921H13.4329V22.4915H22.6243V23.2866H12.5158V8.34605ZM23.4163 8.34605H24.4793L29.1897 14.9166L34.0042 8.34605L40.5529 0L29.7941 15.6071L35.3382 23.2866H34.2335L29.1897 16.2976L24.125 23.2866H23.0412L28.6269 15.6071L23.4163 8.34605ZM35.7342 9.14121V8.34605H47.1349V9.14121H41.8826V23.2866H40.9656V9.14121H35.7342ZM0 8.34605H1.14633L16.9535 32L10.4212 23.2866L0.958747 9.47601L0.917062 23.2866H0L0 8.34605ZM47.0425 22.2515C46.8551 22.2515 46.7146 22.1063 46.7146 21.9187C46.7146 21.7311 46.8551 21.586 47.0425 21.586C47.2321 21.586 47.3704 21.7311 47.3704 21.9187C47.3704 22.1063 47.2321 22.2515 47.0425 22.2515ZM47.9436 21.376H48.4343C48.441 21.6418 48.6351 21.8205 48.9206 21.8205C49.2396 21.8205 49.4202 21.6284 49.4202 21.2688V18.9907H49.9199V21.271C49.9199 21.9187 49.5451 22.2917 48.9251 22.2917C48.3429 22.2917 47.9436 21.9299 47.9436 21.376ZM50.5734 21.347H51.0686C51.1109 21.653 51.4098 21.8473 51.8403 21.8473C52.2418 21.8473 52.5362 21.6396 52.5362 21.3537C52.5362 21.108 52.3489 20.9606 51.9229 20.8601L51.508 20.7596C50.9258 20.6234 50.6604 20.3419 50.6604 19.8685C50.6604 19.2945 51.1288 18.9126 51.8314 18.9126C52.4849 18.9126 52.9623 19.2945 52.9913 19.8372H52.505C52.4582 19.5401 52.1994 19.3548 51.8247 19.3548C51.4299 19.3548 51.1667 19.5446 51.1667 19.835C51.1667 20.065 51.3362 20.1968 51.7556 20.295L52.1102 20.3821C52.7704 20.5362 53.0426 20.8043 53.0426 21.2889C53.0426 21.9053 52.5652 22.2917 51.8024 22.2917C51.0886 22.2917 50.6091 21.9232 50.5734 21.347Z" fill="currentColor"/>
</svg>
