<svg width="126" height="33" viewBox="0 0 126 33" fill="none" xmlns="http://www.w3.org/2000/svg">
<path fill-rule="evenodd" clip-rule="evenodd" d="M30.1069 18.2984L32.4678 20.6637C32.6545 20.8513 32.7603 21.1064 32.7603 21.3713V22.702C32.7603 26.2673 32.3896 27.5606 31.6936 28.8646C31.0139 30.1523 29.9628 31.2059 28.6767 31.8886C27.3754 32.5846 26.0847 32.9562 22.5265 32.9562H16.2785C16.1978 32.9557 16.1253 32.9069 16.0946 32.8323C16.0639 32.7577 16.081 32.6719 16.138 32.6148V32.6157L18.498 30.2504C18.6847 30.0628 18.9389 29.9571 19.2038 29.9571H22.0918C24.7603 29.9571 25.7274 29.6788 26.7034 29.1553C27.668 28.6434 28.4565 27.8534 28.9665 26.8877C29.4796 25.9263 29.7571 24.9725 29.7662 22.3978L29.7665 18.4397C29.7669 18.3593 29.8155 18.2869 29.8898 18.2561C29.9641 18.2252 30.0496 18.2419 30.1069 18.2984ZM1.17003 16.2975L3.53181 18.6628C3.71848 18.8504 3.82426 19.1055 3.82426 19.3704V22.2646C3.82426 24.9393 4.10159 25.9091 4.62426 26.8868C5.13399 27.8524 5.92216 28.6424 6.88648 29.1544C7.86248 29.678 8.83048 29.9562 11.4989 29.9562H15.3158C15.3968 29.9559 15.47 30.0045 15.5011 30.0793C15.5323 30.154 15.5153 30.2402 15.458 30.2975L13.0963 32.6628C12.9096 32.8504 12.6554 32.9562 12.3914 32.9562H11.0634C7.50515 32.9562 6.21537 32.5846 4.91403 31.8877C3.62763 31.2051 2.57619 30.1515 1.89626 28.8637C1.20992 27.5778 0.839949 26.3023 0.829804 22.8483L0.82959 16.4388C0.830014 16.3584 0.878601 16.286 0.952904 16.2552C1.02721 16.2243 1.11276 16.241 1.17003 16.2975ZM47.8696 9.868C48.8003 9.868 49.6376 10.0406 50.3816 10.3855C51.1256 10.7295 51.7594 11.2033 52.2838 11.8033C52.8185 12.4236 53.2236 13.1447 53.4749 13.9242C53.746 14.7375 53.8811 15.6131 53.8811 16.5491C53.8884 17.4422 53.7426 18.33 53.45 19.174C53.1839 19.9497 52.7755 20.6689 52.2456 21.2948C51.7317 21.8941 51.0963 22.3774 50.3816 22.7126C49.6355 23.0616 48.8204 23.2384 47.9967 23.23C47.4216 23.23 46.9149 23.1677 46.4749 23.0442C46.068 22.9338 45.6763 22.7734 45.3087 22.5668C44.9985 22.3929 44.7093 22.1842 44.4465 21.9446C44.231 21.7477 44.0354 21.53 43.8625 21.2948C43.8206 21.2948 43.7865 21.3285 43.786 21.3704V27.7917C43.786 28.4348 43.2647 28.9562 42.6216 28.9562H41.9078C41.2647 28.9562 40.7434 28.4348 40.7434 27.7917V11.3508C40.7434 10.7082 41.2643 10.1864 41.9078 10.1864H42.6794C43.2065 10.1864 43.634 10.6131 43.634 11.1411V12.0442C43.634 12.0726 43.6572 12.0948 43.6847 12.0948C44.1247 11.3171 44.7158 10.7526 45.4607 10.398C46.2137 10.0427 47.037 9.86162 47.8696 9.868ZM25.1185 13.2975L27.4794 15.6655C27.666 15.8531 27.7709 16.1073 27.7709 16.3731V23.9588C27.7709 26.1677 25.9843 27.9588 23.7798 27.9588H21.2527C21.1729 27.9585 21.101 27.9107 21.0697 27.8373C21.0384 27.7639 21.0537 27.6789 21.1087 27.6211V27.6202L24.1843 24.3944C24.3976 24.1811 24.5523 23.9322 24.6491 23.6655C24.7341 23.4396 24.7775 23.2002 24.7771 22.9588V13.4388C24.7772 13.358 24.8259 13.2852 24.9006 13.2542C24.9753 13.2233 25.0613 13.2404 25.1185 13.2975ZM6.1567 21.2797H6.15581L9.37537 24.3624C9.58781 24.5757 9.83759 24.7304 10.1025 24.8273C10.3211 24.9108 10.5594 24.9562 10.8083 24.9562H20.3069C20.3876 24.9566 20.4601 25.0055 20.4908 25.0801C20.5215 25.1547 20.5044 25.2404 20.4474 25.2975L18.0847 27.6637C17.898 27.8504 17.6438 27.9562 17.3798 27.9562H9.81003C8.75035 27.955 7.73453 27.5329 6.98605 26.7828C6.23757 26.0326 5.81774 25.0159 5.81892 23.9562V21.4237C5.81931 21.3439 5.86709 21.272 5.94049 21.2407C6.01389 21.2094 6.09886 21.2247 6.1567 21.2797ZM121.402 9.86806C122.181 9.86806 122.962 10.0228 123.749 10.3322C124.048 10.4504 124.402 10.6611 124.809 10.9642C125.077 11.1635 125.246 11.4683 125.274 11.8011C125.302 12.1338 125.186 12.4626 124.955 12.7037L124.484 13.1953C124.07 13.6277 123.396 13.6761 122.925 13.3073C122.82 13.2233 122.71 13.1461 122.595 13.0762C122.236 12.8548 121.824 12.7356 121.402 12.7313C120.845 12.7313 120.345 12.838 119.906 13.0495C119.477 13.2537 119.093 13.542 118.777 13.8975C118.463 14.2536 118.221 14.6679 118.067 15.1171C117.906 15.577 117.825 16.0609 117.826 16.5482C117.826 17.0442 117.906 17.5206 118.067 17.9802C118.227 18.4397 118.464 18.8468 118.778 19.1997C119.093 19.5554 119.477 19.8441 119.906 20.0486C120.345 20.2602 120.845 20.3668 121.402 20.3668C121.876 20.3668 122.316 20.2646 122.721 20.062C122.804 20.0202 122.893 19.9642 122.988 19.894C123.472 19.5372 124.149 19.6085 124.549 20.0584L125.011 20.5775C125.233 20.8265 125.331 21.162 125.278 21.4912C125.225 21.8204 125.027 22.1083 124.738 22.2753C124.005 22.7021 123.202 22.9942 122.366 23.1375C121.994 23.1988 121.673 23.2301 121.402 23.2301C120.517 23.2351 119.64 23.0732 118.815 22.7526C118.028 22.4506 117.312 21.9905 116.71 21.4006C116.105 20.7985 115.627 20.082 115.302 19.2931C114.956 18.4708 114.782 17.5562 114.782 16.5491C114.782 15.542 114.956 14.6273 115.302 13.8051C115.627 13.0161 116.105 12.2997 116.71 11.6975C117.312 11.1077 118.028 10.6475 118.815 10.3455C119.64 10.025 120.517 9.86303 121.402 9.86806ZM78.5105 9.86818C79.322 9.86818 80.1256 10.014 80.9203 10.3055C81.2083 10.4113 81.5292 10.6068 81.8838 10.8922C82.1462 11.1035 82.3041 11.4181 82.3169 11.7548C82.3297 12.0914 82.196 12.4171 81.9505 12.6477L81.5718 13.0042C81.1625 13.3893 80.5365 13.427 80.0838 13.094C79.466 12.6406 78.9158 12.4131 78.4349 12.4131C78.0287 12.4131 77.6314 12.5197 77.242 12.7313C76.8536 12.9437 76.6589 13.2877 76.6589 13.7651C76.6589 14.1544 76.8189 14.4371 77.1407 14.614C77.4625 14.79 77.8678 14.9411 78.3585 15.0646C78.8492 15.1882 79.3772 15.3162 79.9434 15.4486C80.5105 15.582 81.0385 15.7846 81.5292 16.0584C82.0198 16.3322 82.4252 16.7073 82.7469 17.1855C83.0678 17.6628 83.2287 18.3162 83.2287 19.1473C83.2287 19.9073 83.0723 20.5473 82.7594 21.0691C82.458 21.5787 82.0408 22.0102 81.5416 22.3286C81.0238 22.6544 80.4532 22.8875 79.8554 23.0175C79.2394 23.1579 78.6098 23.2292 77.978 23.23C77.0314 23.23 76.1603 23.0877 75.3647 22.806C75.0536 22.6948 74.6803 22.4726 74.2447 22.1384C73.9768 21.933 73.8112 21.6213 73.7909 21.2843C73.7706 20.9473 73.8976 20.6181 74.1389 20.382L74.4545 20.0726C74.89 19.6454 75.5815 19.6268 76.0394 20.03C76.2243 20.1926 76.3843 20.318 76.5194 20.406C76.9674 20.6984 77.5131 20.8442 78.1549 20.8442C78.3754 20.8442 78.6038 20.8175 78.8403 20.7642C79.0776 20.7108 79.2971 20.6228 79.4998 20.4993C79.7025 20.3748 79.8678 20.2211 79.9949 20.0353C80.1211 19.8495 80.1852 19.6335 80.1852 19.3864C80.1852 18.9437 80.0243 18.6166 79.7025 18.4051C79.3816 18.1926 78.9754 18.0202 78.4847 17.8877C77.9605 17.7474 77.4319 17.6238 76.8998 17.5171C76.3479 17.407 75.8143 17.2194 75.3149 16.9597C74.8276 16.7063 74.4096 16.3377 74.0972 15.886C73.7763 15.4264 73.6154 14.79 73.6154 13.9775C73.6154 13.2708 73.7549 12.6566 74.0331 12.1348C74.2995 11.6286 74.6769 11.1892 75.1371 10.8495C75.6104 10.5055 76.1441 10.2534 76.7105 10.1064C77.2974 9.94816 77.9026 9.86818 78.5105 9.86818ZM110.345 10.1864C110.989 10.1864 111.51 10.7082 111.51 11.3508V21.7473C111.51 22.3904 110.988 22.9117 110.345 22.9117H109.631C108.988 22.9117 108.467 22.3904 108.467 21.7473V11.3508C108.467 10.7082 108.988 10.1864 109.631 10.1864H110.345ZM100.325 9.86818C101.136 9.86818 101.821 10.0095 102.379 10.2922C102.922 10.5616 103.388 10.9625 103.736 11.4584C104.083 11.9535 104.332 12.5322 104.484 13.1953C104.637 13.8584 104.712 14.5695 104.712 15.3286V21.7464C104.712 22.3895 104.191 22.9108 103.548 22.9108H102.833C102.19 22.9108 101.669 22.3895 101.669 21.7464V15.7002C101.669 15.3117 101.635 14.9357 101.567 14.574C101.509 14.2365 101.388 13.9127 101.212 13.6193C101.044 13.347 100.808 13.1233 100.527 12.9704C100.239 12.8104 99.8678 12.7313 99.4109 12.7313C98.938 12.7313 98.5363 12.8237 98.2065 13.0095C97.8819 13.1904 97.604 13.4445 97.3949 13.7517C97.1779 14.0737 97.023 14.4333 96.938 14.8122C96.8453 15.2075 96.7985 15.6123 96.7985 16.0184V21.7473C96.7985 22.3904 96.2771 22.9117 95.634 22.9117H94.9194C94.2763 22.9117 93.7549 22.3904 93.7549 21.7473V15.3295C93.7549 14.534 93.5949 13.902 93.2731 13.4335C92.9514 12.966 92.4198 12.7313 91.6749 12.7313C91.1683 12.7313 90.7407 12.8202 90.394 12.9962C90.0474 13.174 89.7603 13.4122 89.5318 13.7126C89.2996 14.0208 89.1313 14.3723 89.0367 14.7464C88.9344 15.1448 88.8836 15.5546 88.8856 15.966V21.7473C88.8856 22.0563 88.7628 22.3526 88.5442 22.571C88.3257 22.7894 88.0292 22.912 87.7203 22.9117H87.0056C86.3625 22.9117 85.8411 22.3904 85.8411 21.7473V11.3508C85.8411 10.7082 86.3629 10.1864 87.0056 10.1864H87.5683C88.2109 10.1864 88.7327 10.7082 88.7327 11.3508V12.1748C89.0659 11.5496 89.5286 11.0026 90.09 10.5704C90.69 10.102 91.4972 9.86818 92.5123 9.86818C94.4234 9.86818 95.6909 10.6548 96.3167 12.2273C96.7567 11.4148 97.306 10.8184 97.9656 10.438C98.6252 10.0584 99.4109 9.86818 100.325 9.86818ZM63.7994 9.86818C63.9851 9.86818 64.1674 9.88595 64.3443 9.92151C64.6613 9.98428 64.8898 10.2623 64.89 10.5855V12.3313C64.8901 12.5197 64.8067 12.6984 64.6621 12.8192C64.5176 12.94 64.327 12.9905 64.1416 12.9571C63.9032 12.9134 63.6613 12.8911 63.4189 12.8904C62.7078 12.8904 62.138 13.0273 61.7069 13.3011C61.2758 13.5757 60.946 13.8886 60.7176 14.2433C60.5023 14.5659 60.3475 14.9249 60.2607 15.3028C60.1843 15.6566 60.1469 15.9215 60.1469 16.0984V21.7473C60.1469 22.3904 59.6256 22.9117 58.9825 22.9117H58.2678C57.6247 22.9117 57.1034 22.3904 57.1034 21.7473V11.3508C57.1034 10.7082 57.6243 10.1864 58.2678 10.1864H59.1389C59.6954 10.1864 60.1469 10.6371 60.1469 11.1935V12.1508C60.1469 12.1784 60.1692 12.2015 60.1976 12.2015C60.5354 11.4584 61.0171 10.8842 61.6429 10.478C62.2687 10.0717 62.9878 9.86818 63.7994 9.86818ZM69.2803 10.1864C69.9229 10.1864 70.4447 10.7082 70.4447 11.3508V21.7473C70.4447 22.3904 69.9234 22.9117 69.2803 22.9117H68.5656C67.9225 22.9117 67.4011 22.3904 67.4011 21.7473V11.3508C67.4011 10.7082 67.922 10.1864 68.5656 10.1864H69.2803ZM12.3371 5.95618C12.4169 5.95656 12.4889 6.00434 12.5202 6.07774C12.5514 6.15114 12.5362 6.23612 12.4811 6.29395L9.4047 9.52062C9.19137 9.73395 9.03759 9.98284 8.9407 10.2495C8.85544 10.4754 8.81178 10.7148 8.81181 10.9562V20.4762C8.81103 20.5565 8.76232 20.6285 8.68809 20.6591C8.61387 20.6897 8.52853 20.673 8.47137 20.6166L6.11048 18.2486C5.92362 18.0609 5.81878 17.8068 5.81892 17.542V9.95618C5.81892 7.74729 7.60559 5.95618 9.81003 5.95618H12.3371ZM47.2616 12.7313C46.7034 12.7313 46.2038 12.838 45.7647 13.0495C45.3354 13.2537 44.9515 13.542 44.6358 13.8975C44.3215 14.2536 44.0801 14.6679 43.9256 15.1171C43.7652 15.5771 43.6841 16.061 43.6856 16.5482C43.6856 17.0442 43.7656 17.5206 43.9256 17.9802C44.0865 18.4397 44.3229 18.8468 44.6367 19.1997C44.9523 19.5555 45.3362 19.8442 45.7656 20.0486C46.2047 20.2602 46.7034 20.3668 47.2616 20.3668C47.8198 20.3668 48.3185 20.2602 48.7576 20.0486C49.187 19.8442 49.5709 19.5555 49.8865 19.1997C50.1994 18.8468 50.4358 18.4397 50.5976 17.9802C50.7576 17.5206 50.8376 17.0442 50.8376 16.5491C50.8376 16.054 50.7576 15.5766 50.5976 15.118C50.4429 14.6684 50.2013 14.2538 49.8865 13.8975C49.5708 13.542 49.1869 13.2537 48.7576 13.0495C48.3185 12.8371 47.8198 12.7313 47.2616 12.7313ZM28.6767 2.02462C29.9628 2.70735 31.0139 3.76094 31.6936 5.04862C32.3799 6.33451 32.7499 7.61003 32.76 11.064L32.7603 17.4735C32.7603 17.5543 32.7115 17.6272 32.6368 17.6581C32.5621 17.689 32.4761 17.672 32.4189 17.6148V17.614L30.0589 15.2495C29.8715 15.0617 29.7663 14.8072 29.7665 14.542V11.6477C29.7665 8.97307 29.4883 8.00329 28.9665 7.02551C28.4565 6.05986 27.668 5.26982 26.7034 4.75795C25.7283 4.2344 24.7603 3.95618 22.0918 3.95618H18.274C18.1934 3.95575 18.1208 3.90689 18.0901 3.83228C18.0594 3.75767 18.0766 3.67193 18.1336 3.61484L20.4936 1.24951C20.6803 1.06195 20.9345 0.956177 21.1994 0.956177H22.5265C26.0847 0.956177 27.3754 1.32773 28.6767 2.02462ZM17.3114 0.956177C17.392 0.956605 17.4646 1.00546 17.4953 1.08007C17.526 1.15468 17.5088 1.24043 17.4518 1.29751L15.0918 3.66284C14.9043 3.8504 14.6509 3.95618 14.386 3.95618H11.498C8.82959 3.95618 7.86159 4.2344 6.88559 4.75795C5.92094 5.26982 5.13245 6.05986 4.62248 7.02551C4.1007 8.00329 3.82248 8.97307 3.82248 11.6477V15.4735C3.82205 15.554 3.77347 15.6263 3.69916 15.6572C3.62486 15.688 3.53931 15.6713 3.48203 15.6148L1.12292 13.2495C0.935198 13.0619 0.82959 12.8074 0.82959 12.542V11.2113C0.82959 7.64596 1.20026 6.35262 1.89626 5.04862C2.57595 3.76094 3.62707 2.70735 4.91315 2.02462C6.1964 1.33741 7.46929 0.966561 10.9156 0.956392L17.3114 0.956177ZM23.7798 5.95618C25.9843 5.95618 27.7709 7.74729 27.7709 9.95618V12.4886C27.7705 12.5684 27.7228 12.6403 27.6494 12.6716C27.576 12.7029 27.491 12.6877 27.4331 12.6326L24.2154 9.54995C24.002 9.33662 23.7531 9.18195 23.4874 9.08506C23.2619 8.99965 23.0227 8.95597 22.7816 8.95618H13.2829C13.2021 8.95611 13.1292 8.90738 13.0983 8.83269C13.0674 8.758 13.0845 8.67204 13.1416 8.61484L15.5051 6.24862C15.6918 6.06195 15.9451 5.95618 16.21 5.95618H23.7798ZM68.8971 3.95618C69.4554 3.95618 69.9247 4.13751 70.3052 4.49929C70.6856 4.86195 70.8758 5.31707 70.8758 5.86462C70.8758 6.41307 70.6856 6.86818 70.3052 7.22995C69.9247 7.59262 69.4554 7.77395 68.8971 7.77395C68.3398 7.77395 67.8785 7.58373 67.5149 7.20418C67.1614 6.84856 66.9651 6.36606 66.97 5.86462C66.97 5.35262 67.1514 4.9064 67.5149 4.52595C67.8794 4.1464 68.3398 3.95618 68.8971 3.95618ZM109.963 3.95618C110.521 3.95618 110.99 4.13751 111.371 4.49929C111.751 4.86195 111.942 5.31707 111.942 5.86462C111.942 6.41307 111.751 6.86818 111.371 7.22995C110.99 7.59262 110.521 7.77395 109.963 7.77395C109.405 7.77395 108.944 7.58373 108.581 7.20418C108.227 6.84871 108.03 6.36619 108.035 5.86462C108.035 5.35262 108.217 4.9064 108.581 4.52595C108.944 4.1464 109.405 3.95618 109.963 3.95618Z" fill="currentColor"/>
</svg>
