<svg width="36" height="32" viewBox="0 0 36 32" fill="none" xmlns="http://www.w3.org/2000/svg">
<path d="M17.983 12.793C16.215 12.793 14.7753 14.2328 14.7753 16.0008C14.7753 17.7687 16.215 19.2085 17.983 19.2085C19.7509 19.2085 21.1907 17.7687 21.1907 16.0008C21.1907 14.2328 19.7509 12.793 17.983 12.793ZM9.00273 22.3757L8.29465 22.2004C3.02564 20.8652 0 18.606 0 15.9951C0 13.3842 3.02676 11.1251 8.29465 9.78989L9.00273 9.61456L9.20167 10.317C9.73441 12.1547 10.4189 13.9462 11.245 15.6793L11.3967 15.9951L11.245 16.3166C10.42 18.043 9.73441 19.8345 9.20167 21.6789L9.00273 22.3757ZM7.96758 11.4286C3.963 12.5525 1.50495 14.2789 1.50495 15.9951C1.50495 17.7114 3.96412 19.431 7.96758 20.5617C8.45987 18.9983 9.05106 17.4765 9.74116 15.9951C9.04993 14.5138 8.45875 12.992 7.96758 11.4286ZM26.9632 22.3757L26.7643 21.6733C26.2315 19.8356 25.5471 18.0441 24.721 16.3166L24.5692 15.9951L24.721 15.6737C25.5459 13.9473 26.2315 12.1558 26.7643 10.3114L26.9632 9.61456L27.6713 9.78989C32.9403 11.1251 35.966 13.3842 35.966 15.9951C35.966 18.606 32.9392 20.8652 27.6713 22.2004L26.9632 22.3757ZM26.2248 15.9951C26.9452 17.5518 27.5421 19.0804 27.9984 20.5617C32.0086 19.4321 34.461 17.7114 34.461 15.9951C34.461 14.2789 32.0018 12.5593 27.9984 11.4286C27.5061 12.9852 26.9149 14.5138 26.2248 15.9951ZM7.95522 11.423L7.75628 10.7205C6.27494 5.4987 6.72563 1.75262 8.99149 0.44661C11.2158 -0.835802 14.7809 0.680389 18.5213 4.52088L19.0305 5.04239L18.5213 5.56389C17.1929 6.94521 15.9812 8.43218 14.8922 10.0124L14.6876 10.299L14.3358 10.3283C12.4217 10.48 10.5245 10.7846 8.6633 11.242L7.95522 11.423ZM10.7999 1.48962C10.3964 1.48962 10.039 1.57167 9.74003 1.747C8.25307 2.60794 7.99006 5.59311 9.01397 9.62018C10.6122 9.26277 12.2273 9.011 13.8615 8.86489C14.7977 7.52966 15.8284 6.25399 16.9343 5.05363C14.5988 2.77653 12.3858 1.48962 10.7999 1.48962ZM25.1717 31.9989C25.1661 31.9989 25.1661 31.9989 25.1717 31.9989C23.0351 31.9989 20.2893 30.395 17.4446 27.4683L16.9355 26.9468L17.4446 26.4253C18.7731 25.044 19.9847 23.557 21.0738 21.9767L21.2727 21.6901L21.6245 21.6553C23.5386 21.5092 25.4358 21.2046 27.3027 20.7415L28.0107 20.5662L28.2097 21.2687C29.691 26.4905 29.2403 30.2309 26.9745 31.5358C26.4237 31.8516 25.8033 32.0112 25.1717 31.9989ZM19.0305 26.9355C21.366 29.2126 23.5791 30.5007 25.1649 30.5007H25.1706C25.5684 30.5007 25.9258 30.413 26.2248 30.2433C27.7118 29.3824 27.9815 26.3972 26.9509 22.3701C25.3526 22.7275 23.7308 22.9793 22.1033 23.1198C21.1671 24.4606 20.1364 25.7296 19.0305 26.9355ZM28.0107 11.423L27.3027 11.242C25.4358 10.7857 23.5386 10.4811 21.6245 10.3283L21.2727 10.299L21.0738 10.0124C19.9847 8.43218 18.7731 6.94521 17.4446 5.56389L16.9355 5.04239L17.4446 4.52088C21.1851 0.680389 24.7502 -0.835802 26.9745 0.44661C29.2403 1.7515 29.691 5.4987 28.2097 10.7205L28.0107 11.423ZM22.1045 8.86489C23.814 9.02337 25.4414 9.27513 26.952 9.62018C27.9826 5.59311 27.7129 2.60682 26.2259 1.747C24.7446 0.892813 21.9583 2.20332 19.0316 5.05475C20.1376 6.26073 21.1626 7.53078 22.1045 8.86602V8.86489ZM10.7999 31.9989C10.1671 32.0101 9.54109 31.8528 8.99149 31.5369C6.72563 30.232 6.27494 26.4905 7.75628 21.2698L7.95522 20.5673L8.6633 20.7427C10.3964 21.1821 12.3049 21.4856 14.3358 21.6564L14.6876 21.6913L14.8865 21.9779C15.9756 23.5581 17.1872 25.0451 18.5157 26.4264L19.0249 26.9479L18.5157 27.4694C15.6767 30.3961 12.9309 32 10.7999 32V31.9989ZM9.01509 22.3701C7.98444 26.3972 8.25419 29.3835 9.74116 30.2433C11.2225 31.0862 14.0031 29.787 16.9355 26.9355C15.8295 25.7296 14.7989 24.4595 13.8626 23.1187C12.2296 22.9782 10.6133 22.7275 9.01509 22.3701ZM17.983 23.312C16.7478 23.312 15.4833 23.2591 14.2133 23.1535L13.8615 23.1243L13.6569 22.832C12.9433 21.8014 12.2633 20.7427 11.6372 19.6536C11.0045 18.5645 10.4256 17.4529 9.88727 16.3166L9.73554 15.9951L9.88727 15.6737C10.4256 14.5385 11.0056 13.4258 11.6372 12.3367C12.2576 11.2656 12.9365 10.1945 13.6569 9.15824L13.8615 8.86602L14.2133 8.83679C16.7242 8.62549 19.2474 8.62549 21.7527 8.83679L22.1045 8.86602L22.309 9.15824C23.7432 11.2184 25.0076 13.4022 26.0787 15.6737L26.2304 15.9951L26.0787 16.3166C25.0076 18.5881 23.7488 20.7719 22.309 22.832L22.1045 23.1243L21.7527 23.1535C20.4882 23.2591 19.2182 23.312 17.983 23.312ZM14.6932 21.6845C16.9062 21.8542 19.0597 21.8542 21.2784 21.6845C22.5136 19.8761 23.6139 17.9733 24.5681 15.994C23.6195 14.0159 22.5192 12.1131 21.2727 10.3035C19.0833 10.1338 16.8826 10.1338 14.6932 10.3035C13.4468 12.1119 12.3453 14.0148 11.3978 15.994C12.3521 17.9721 13.4524 19.875 14.6932 21.6845Z" fill="currentColor"/>
</svg>
