<svg width="34" height="32" viewBox="0 0 34 32" fill="none" xmlns="http://www.w3.org/2000/svg">
<path d="M9.12476 23.0885C9.16553 24.3526 10.2397 25.4057 11.5263 25.4057H11.6106C12.959 25.3635 13.9911 24.2485 13.9278 22.9198C13.9278 21.6558 12.8325 20.6041 11.5474 20.6041H11.4616C11.3772 20.6041 11.2521 20.6041 11.1452 20.6448C9.39753 17.695 8.65936 14.5342 8.93494 11.1246C9.10226 8.55433 9.94588 6.32014 11.4616 4.46698C12.7256 2.88659 15.106 2.10624 16.7286 2.06547C21.2785 1.97971 23.1753 7.64884 23.3215 9.90272L25.4278 10.534C24.9427 3.62476 20.6472 0 16.5388 0C12.6834 0 9.12476 2.80223 7.6906 6.91067C5.73199 12.3886 7.01711 17.6542 9.41862 21.8681C9.20912 22.1423 9.08258 22.6259 9.12476 23.0885ZM30.9057 17.0651C27.6423 13.2308 22.8378 11.1246 17.3599 11.1246H16.6428C16.2871 10.3456 15.466 9.86054 14.538 9.86054H14.4747C13.1488 9.86054 12.1154 10.9994 12.159 12.3253C12.2012 13.5879 13.2754 14.6425 14.5605 14.6425H14.6645C15.6136 14.6003 16.4347 14.0098 16.7708 13.1675H17.5511C20.7977 13.1675 23.8713 14.1152 26.6735 15.9684C28.8205 17.38 30.3601 19.2332 31.2234 21.4463C31.9799 23.2573 31.9391 25.0275 31.1602 26.5038C29.9594 28.8195 27.9361 30.0428 25.2619 30.0428C23.576 30.0428 21.9338 29.5155 21.0901 29.1373C20.5854 29.5563 19.7418 30.2523 19.1301 30.6741C20.9833 31.5149 22.8589 32 24.6699 32C28.7783 32 31.8309 29.6843 32.9908 27.4501C34.2535 24.922 34.1494 20.6673 30.9254 17.0229L30.9057 17.0651ZM23.3862 22.3321C24.608 22.2266 25.5557 21.151 25.4938 19.8659C25.4292 18.5808 24.376 17.5487 23.0923 17.5487H23.0066C21.6807 17.5923 20.6472 18.7073 20.6894 20.036C20.7316 20.7095 21.0072 21.2579 21.384 21.6572C19.9105 24.5227 17.6988 26.6289 14.3482 28.3991C12.0943 29.5774 9.71389 30.0217 7.39674 29.7053C5.45922 29.4326 3.94351 28.5665 3.01553 27.1773C1.62636 25.0696 1.49982 22.7961 2.65699 20.5211C3.50202 18.8775 4.76464 17.6767 5.60826 17.0862C5.39735 16.5392 5.14427 15.6126 5.01772 14.9181C-1.21946 19.385 -0.585334 25.4929 1.31 28.3795C2.72166 30.4857 5.60826 31.8327 8.76762 31.8327C9.60984 31.8327 10.4956 31.7708 11.359 31.5599C16.8369 30.5068 20.9861 27.2209 23.3665 22.3757L23.3862 22.3321Z" fill="currentColor"/>
</svg>
