<svg width="54" height="32" viewBox="0 0 54 32" fill="none" xmlns="http://www.w3.org/2000/svg">
<path d="M26.6667 0C19.5556 0 15.1111 3.55556 13.3333 10.6667C16 7.11111 19.1111 5.77778 22.6667 6.66667C24.6953 7.17383 26.1453 8.64553 27.7502 10.2747C30.3647 12.9285 33.3907 16 40 16C47.1111 16 51.5556 12.4444 53.3333 5.33333C50.6667 8.88889 47.5556 10.2222 44 9.33333C41.9714 8.82617 40.5214 7.35447 38.9164 5.72533C36.3019 3.07151 33.276 0 26.6667 0ZM13.3333 16C6.22222 16 1.77778 19.5556 0 26.6667C2.66667 23.1111 5.77778 21.7778 9.33333 22.6667C11.362 23.1738 12.812 24.6455 14.4169 26.2747C17.0314 28.9285 20.0574 32 26.6667 32C33.7778 32 38.2222 28.4444 40 21.3333C37.3333 24.8889 34.2222 26.2222 30.6667 25.3333C28.638 24.8262 27.1881 23.3545 25.5831 21.7253C22.9686 19.0715 19.9426 16 13.3333 16Z" fill="currentColor"/>
</svg>
